<?xml version="1.0" encoding="UTF-8" standalone="no"?>
<!-- Created with Inkscape (http://www.inkscape.org/) -->

<svg
   width="50mm"
   height="50mm"
   viewBox="0 0 50 50"
   version="1.1"
   id="svg1"
   inkscape:export-filename="pet.svg"
   inkscape:export-xdpi="96"
   inkscape:export-ydpi="96"
   xmlns:inkscape="http://www.inkscape.org/namespaces/inkscape"
   xmlns:sodipodi="http://sodipodi.sourceforge.net/DTD/sodipodi-0.dtd"
   xmlns="http://www.w3.org/2000/svg"
   xmlns:svg="http://www.w3.org/2000/svg">
  <sodipodi:namedview
     id="namedview1"
     pagecolor="#ffffff"
     bordercolor="#000000"
     borderopacity="0.25"
     inkscape:showpageshadow="2"
     inkscape:pageopacity="0.0"
     inkscape:pagecheckerboard="0"
     inkscape:deskcolor="#d1d1d1"
     inkscape:document-units="mm"
     showguides="true"
     showgrid="true">
    <sodipodi:guide
       position="150.72588,74.508346"
       orientation="0,-1"
       id="guide1"
       inkscape:locked="false" />
    <inkscape:grid
       id="grid1"
       units="mm"
       originx="0"
       originy="0"
       spacingx="0.99999999"
       spacingy="0.99999999"
       empcolor="#0099e5"
       empopacity="0.30196078"
       color="#0099e5"
       opacity="0.14901961"
       empspacing="5"
       dotted="false"
       gridanglex="30"
       gridanglez="30"
       visible="true" />
  </sodipodi:namedview>
  <defs
     id="defs1" />
  <g
     inkscape:label="Vrstva 1"
     inkscape:groupmode="layer"
     id="layer1">
    <rect
       style="fill:#000000;fill-opacity:1;stroke-width:11.003"
       id="rect1"
       width="46.098106"
       height="46.098106"
       x="1.9018953"
       y="1.9509468"
       ry="6.2435355" />
    <circle
       style="fill:#806600;fill-opacity:1;stroke-width:11.003"
       id="path1"
       cx="10"
       cy="15"
       r="3.4999998" />
    <ellipse
       style="fill:#806600;fill-opacity:1;stroke-width:11.003"
       id="circle1"
       cx="10"
       cy="35"
       rx="3.4999998"
       ry="3.5" />
    <ellipse
       style="fill:#806600;fill-opacity:1;stroke-width:11.003"
       id="ellipse2"
       cx="40"
       cy="35"
       rx="3.4999998"
       ry="3.5" />
    <circle
       style="fill:#806600;fill-opacity:1;stroke-width:11.003"
       id="circle2"
       cx="40"
       cy="15"
       r="3.4999998" />
    <path
       d="m 25.000024,11.500073 a 3.4999998,3.5 0 0 0 -0.49816,0.03566 3.4999998,3.5 0 0 0 -0.487826,0.105937 3.4999998,3.5 0 0 0 -0.468188,0.174666 3.4999998,3.5 0 0 0 -0.438217,0.239262 3.4999998,3.5 0 0 0 -0.399458,0.299206 3.4999998,3.5 0 0 0 -0.353467,0.35295 3.4999998,3.5 0 0 0 -0.299207,0.399976 3.4999998,3.5 0 0 0 -0.239262,0.438216 3.4999998,3.5 0 0 0 -0.174666,0.468189 3.4999998,3.5 0 0 0 -0.105937,0.487825 3.4999998,3.5 0 0 0 -0.03566,0.498161 3.4999998,3.5 0 0 0 0.03566,0.498161 3.4999998,3.5 0 0 0 0.105937,0.487825 3.4999998,3.5 0 0 0 0.174666,0.467672 3.4999998,3.5 0 0 0 0.239262,0.438216 3.4999998,3.5 0 0 0 0.299207,0.399976 3.4999998,3.5 0 0 0 0.353467,0.35295 3.4999998,3.5 0 0 0 0.399458,0.299723 3.4999998,3.5 0 0 0 0.438217,0.239262 3.4999998,3.5 0 0 0 0.468188,0.17415 3.4999998,3.5 0 0 0 0.487826,0.106453 3.4999998,3.5 0 0 0 0.49816,0.03566 3.4999998,3.5 0 0 0 0.498161,-0.03566 3.4999998,3.5 0 0 0 0.487826,-0.106453 3.4999998,3.5 0 0 0 0.468188,-0.17415 3.4999998,3.5 0 0 0 0.438216,-0.239262 3.4999998,3.5 0 0 0 0.399459,-0.299723 3.4999998,3.5 0 0 0 0.353467,-0.35295 3.4999998,3.5 0 0 0 0.299207,-0.399976 3.4999998,3.5 0 0 0 0.239261,-0.438216 3.4999998,3.5 0 0 0 0.174667,-0.467672 3.4999998,3.5 0 0 0 0.105936,-0.487825 3.4999998,3.5 0 0 0 0.03566,-0.498161 3.4999998,3.5 0 0 0 -0.0041,-0.172083 3.4999998,3.5 0 0 0 -0.01292,-0.171049 3.4999998,3.5 0 0 0 -0.02067,-0.170532 3.4999998,3.5 0 0 0 -0.02945,-0.169498 3.4999998,3.5 0 0 0 -0.03772,-0.167432 3.4999998,3.5 0 0 0 -0.04599,-0.165365 3.4999998,3.5 0 0 0 -0.05374,-0.163297 3.4999998,3.5 0 0 0 -0.06201,-0.160197 3.4999998,3.5 0 0 0 -0.06925,-0.157096 3.4999998,3.5 0 0 0 -0.07751,-0.153479 3.4999998,3.5 0 0 0 -0.08475,-0.149345 3.4999998,3.5 0 0 0 -0.09198,-0.145211 3.4999998,3.5 0 0 0 -0.0987,-0.14056 3.4999998,3.5 0 0 0 -0.105936,-0.135392 3.4999998,3.5 0 0 0 -0.112138,-0.130225 3.4999998,3.5 0 0 0 -0.118339,-0.124023 3.4999998,3.5 0 0 0 -0.12454,-0.118856 3.4999998,3.5 0 0 0 -0.129708,-0.112138 3.4999998,3.5 0 0 0 -0.135393,-0.10542 3.4999998,3.5 0 0 0 -0.140559,-0.09922 3.4999998,3.5 0 0 0 -0.145211,-0.09198 3.4999998,3.5 0 0 0 -0.149345,-0.08423 3.4999998,3.5 0 0 0 -0.153479,-0.07752 3.4999998,3.5 0 0 0 -0.157096,-0.06976 3.4999998,3.5 0 0 0 -0.160197,-0.06149 3.4999998,3.5 0 0 0 -0.163298,-0.05426 3.4999998,3.5 0 0 0 -0.165365,-0.04548 3.4999998,3.5 0 0 0 -0.167948,-0.03772 3.4999998,3.5 0 0 0 -0.168982,-0.02946 3.4999998,3.5 0 0 0 -0.170532,-0.02119 3.4999998,3.5 0 0 0 -0.171566,-0.0124 3.4999998,3.5 0 0 0 -0.171566,-0.0041 z"
       style="fill:#806600;stroke-width:11.003"
       id="path3" />
    <path
       d="m 24.999999,31.499952 a 3.4999998,3.5 0 0 0 -0.49816,0.03566 3.4999998,3.5 0 0 0 -0.487826,0.105937 3.4999998,3.5 0 0 0 -0.468188,0.174666 3.4999998,3.5 0 0 0 -0.438217,0.239262 3.4999998,3.5 0 0 0 -0.399458,0.299206 3.4999998,3.5 0 0 0 -0.353467,0.35295 3.4999998,3.5 0 0 0 -0.299207,0.399976 3.4999998,3.5 0 0 0 -0.239262,0.438216 3.4999998,3.5 0 0 0 -0.174666,0.468189 3.4999998,3.5 0 0 0 -0.105937,0.487825 A 3.4999998,3.5 0 0 0 21.499951,35 a 3.4999998,3.5 0 0 0 0.03566,0.498161 3.4999998,3.5 0 0 0 0.105937,0.487825 3.4999998,3.5 0 0 0 0.174666,0.467672 3.4999998,3.5 0 0 0 0.239262,0.438216 3.4999998,3.5 0 0 0 0.299207,0.399976 3.4999998,3.5 0 0 0 0.353467,0.35295 3.4999998,3.5 0 0 0 0.399458,0.299723 3.4999998,3.5 0 0 0 0.438217,0.239262 3.4999998,3.5 0 0 0 0.468188,0.17415 3.4999998,3.5 0 0 0 0.487826,0.106453 3.4999998,3.5 0 0 0 0.49816,0.03566 3.4999998,3.5 0 0 0 0.498161,-0.03566 3.4999998,3.5 0 0 0 0.487826,-0.106453 3.4999998,3.5 0 0 0 0.468188,-0.17415 3.4999998,3.5 0 0 0 0.438216,-0.239262 3.4999998,3.5 0 0 0 0.399459,-0.299723 3.4999998,3.5 0 0 0 0.353467,-0.35295 3.4999998,3.5 0 0 0 0.299207,-0.399976 3.4999998,3.5 0 0 0 0.239261,-0.438216 3.4999998,3.5 0 0 0 0.174667,-0.467672 3.4999998,3.5 0 0 0 0.105936,-0.487825 A 3.4999998,3.5 0 0 0 28.500047,35 a 3.4999998,3.5 0 0 0 -0.0041,-0.172083 3.4999998,3.5 0 0 0 -0.01292,-0.171049 3.4999998,3.5 0 0 0 -0.02067,-0.170532 3.4999998,3.5 0 0 0 -0.02945,-0.169498 3.4999998,3.5 0 0 0 -0.03772,-0.167432 3.4999998,3.5 0 0 0 -0.04599,-0.165365 3.4999998,3.5 0 0 0 -0.05374,-0.163297 3.4999998,3.5 0 0 0 -0.06201,-0.160197 3.4999998,3.5 0 0 0 -0.06925,-0.157096 3.4999998,3.5 0 0 0 -0.07751,-0.153479 3.4999998,3.5 0 0 0 -0.08475,-0.149345 3.4999998,3.5 0 0 0 -0.09198,-0.145211 3.4999998,3.5 0 0 0 -0.0987,-0.14056 3.4999998,3.5 0 0 0 -0.105936,-0.135392 3.4999998,3.5 0 0 0 -0.112138,-0.130225 3.4999998,3.5 0 0 0 -0.118339,-0.124023 3.4999998,3.5 0 0 0 -0.12454,-0.118856 3.4999998,3.5 0 0 0 -0.129708,-0.112138 3.4999998,3.5 0 0 0 -0.135393,-0.10542 3.4999998,3.5 0 0 0 -0.140559,-0.09922 3.4999998,3.5 0 0 0 -0.145211,-0.09198 3.4999998,3.5 0 0 0 -0.149345,-0.08423 3.4999998,3.5 0 0 0 -0.153479,-0.07752 3.4999998,3.5 0 0 0 -0.157096,-0.06976 3.4999998,3.5 0 0 0 -0.160197,-0.06149 3.4999998,3.5 0 0 0 -0.163298,-0.05426 3.4999998,3.5 0 0 0 -0.165365,-0.04548 3.4999998,3.5 0 0 0 -0.167948,-0.03772 3.4999998,3.5 0 0 0 -0.168982,-0.02946 3.4999998,3.5 0 0 0 -0.170532,-0.02119 3.4999998,3.5 0 0 0 -0.171566,-0.0124 3.4999998,3.5 0 0 0 -0.171566,-0.0041 z"
       style="fill:#806600;stroke-width:11.003"
       id="path4" />
  </g>
</svg>
